<svg width="41" height="40" viewBox="0 0 41 40" fill="none" xmlns="http://www.w3.org/2000/svg">
<path d="M15.6763 34.4563C15.3626 34.4563 15.049 34.3407 14.8013 34.0931C14.3225 33.6143 14.3225 32.8218 14.8013 32.343L25.566 21.5783C26.3585 20.7858 26.3585 19.498 25.566 18.7055L14.8013 7.94076C14.3225 7.46197 14.3225 6.66947 14.8013 6.19067C15.2801 5.71187 16.0726 5.71187 16.5514 6.19067L27.3161 16.9554C28.1581 17.7974 28.6369 18.9366 28.6369 20.1419C28.6369 21.3471 28.1746 22.4863 27.3161 23.3284L16.5514 34.0931C16.3037 34.3242 15.99 34.4563 15.6763 34.4563Z" fill="black"/>
</svg>
