<svg width="17" height="26" viewBox="0 0 17 26" fill="none" xmlns="http://www.w3.org/2000/svg">
<path d="M6.31128 22.1482C6.17669 22.1482 6.04211 22.0732 5.93586 21.9125C5.73045 21.6018 5.73045 21.0874 5.93586 20.7767L10.5542 13.7904C10.8942 13.2761 10.8942 12.4403 10.5542 11.926L5.93586 4.93969C5.73045 4.62895 5.73045 4.11463 5.93586 3.80389C6.14128 3.49315 6.48128 3.49315 6.68669 3.80389L11.305 10.7902C11.6663 11.3366 11.8717 12.076 11.8717 12.8582C11.8717 13.6404 11.6734 14.3797 11.305 14.9262L6.68669 21.9125C6.58044 22.0625 6.44586 22.1482 6.31128 22.1482Z" fill="black"/>
</svg>
