<svg width="20" height="22" viewBox="0 0 20 22" fill="none" xmlns="http://www.w3.org/2000/svg">
<path d="M19.3438 9.375C19.3438 11.7719 18.5008 13.9656 16.9672 15.5602C15.4336 17.1547 13.5852 17.9062 11.625 17.9062C10.0508 17.9062 8.90312 17.4797 8.08047 16.9617L7.12578 21.0242C7.06375 21.2928 6.91247 21.5325 6.69664 21.7041C6.48082 21.8756 6.2132 21.9689 5.9375 21.9687C5.84525 21.9687 5.7533 21.9584 5.66328 21.9383C5.50718 21.9024 5.3597 21.836 5.22926 21.7431C5.09882 21.6501 4.98798 21.5323 4.90309 21.3965C4.81819 21.2607 4.76091 21.1094 4.73451 20.9515C4.7081 20.7935 4.7131 20.6318 4.74922 20.4758L7.99922 6.66328C8.03523 6.50723 8.10162 6.3598 8.19461 6.22942C8.2876 6.09903 8.40535 5.98823 8.54116 5.90335C8.67697 5.81847 8.82816 5.76118 8.98611 5.73473C9.14406 5.70828 9.30567 5.7132 9.46172 5.74921C9.61777 5.78523 9.76519 5.85162 9.89558 5.94461C10.026 6.03759 10.1368 6.15535 10.2216 6.29116C10.3065 6.42696 10.3638 6.57816 10.3903 6.73611C10.4167 6.89406 10.4118 7.05567 10.3758 7.21171L8.7 14.3211C9.05547 14.7477 9.91875 15.4687 11.625 15.4687C14.225 15.4687 16.9062 13.1937 16.9062 9.375C16.9053 8.29653 16.6517 7.23328 16.166 6.27042C15.6802 5.30756 14.9757 4.47184 14.1088 3.83022C13.242 3.1886 12.2369 2.7589 11.1742 2.57554C10.1114 2.39219 9.02046 2.46027 7.98875 2.77435C6.95703 3.08842 6.0132 3.63975 5.23287 4.38418C4.45254 5.1286 3.85739 6.04543 3.4951 7.06122C3.13281 8.07702 3.01345 9.16354 3.14657 10.2338C3.2797 11.304 3.66161 12.3281 4.26172 13.2242C4.36481 13.3563 4.43954 13.5083 4.48125 13.6706C4.52296 13.8329 4.53075 14.0021 4.50413 14.1675C4.47751 14.333 4.41705 14.4912 4.32654 14.6322C4.23603 14.7732 4.1174 14.8941 3.97807 14.9872C3.83874 15.0803 3.6817 15.1437 3.51677 15.1734C3.35184 15.2031 3.18256 15.1985 3.01951 15.1598C2.85645 15.1211 2.70312 15.0492 2.56911 14.9486C2.4351 14.848 2.32327 14.7208 2.24062 14.575C1.42723 13.3626 0.909279 11.9764 0.728308 10.5276C0.547338 9.07887 0.708384 7.60787 1.19853 6.2326C1.68868 4.85733 2.49429 3.61605 3.55075 2.60832C4.60721 1.60059 5.88512 0.854456 7.282 0.429754C8.67887 0.00505144 10.1558 -0.0863986 11.5944 0.162738C13.033 0.411874 14.3932 0.994664 15.5659 1.86437C16.7386 2.73407 17.6912 3.86648 18.3473 5.17079C19.0033 6.47509 19.3446 7.91499 19.3438 9.375Z" fill="black"/>
</svg>
