<svg width="22" height="22" viewBox="0 0 22 22" fill="none" xmlns="http://www.w3.org/2000/svg">
<path d="M18.6375 3.31916C17.6443 2.31591 16.4613 1.52047 15.1574 0.979215C13.8536 0.437964 12.455 0.161742 11.0433 0.16666C5.12832 0.16666 0.307492 4.98749 0.307492 10.9025C0.307492 12.7983 0.805825 14.64 1.73749 16.265L0.220825 21.8333L5.90832 20.3383C7.47916 21.1942 9.24499 21.6492 11.0433 21.6492C16.9583 21.6492 21.7792 16.8283 21.7792 10.9133C21.7792 8.04249 20.6633 5.34499 18.6375 3.31916ZM11.0433 19.8292C9.43999 19.8292 7.86916 19.3958 6.49332 18.5833L6.16832 18.3883L2.78833 19.2767L3.68749 15.9833L3.47083 15.6475C2.58005 14.225 2.10706 12.5808 2.10583 10.9025C2.10583 5.98416 6.11416 1.97583 11.0325 1.97583C13.4158 1.97583 15.6583 2.90749 17.3375 4.59749C18.1689 5.42512 18.8278 6.40954 19.276 7.4937C19.7242 8.57786 19.9527 9.74019 19.9483 10.9133C19.97 15.8317 15.9617 19.8292 11.0433 19.8292ZM15.94 13.1558C15.6692 13.0258 14.3475 12.3758 14.1092 12.2783C13.86 12.1917 13.6867 12.1483 13.5025 12.4083C13.3183 12.6792 12.8092 13.2858 12.6575 13.4592C12.5058 13.6433 12.3433 13.665 12.0725 13.5242C11.8017 13.3942 10.935 13.1017 9.91666 12.1917C9.11499 11.4767 8.58416 10.5992 8.42166 10.3283C8.26999 10.0575 8.39999 9.91666 8.54082 9.77583C8.65999 9.65666 8.81166 9.46166 8.94166 9.30999C9.07166 9.15833 9.12582 9.03916 9.21249 8.86583C9.29916 8.68166 9.25582 8.52999 9.19082 8.39999C9.12582 8.26999 8.58416 6.94833 8.36749 6.40666C8.15082 5.88666 7.92332 5.95166 7.76082 5.94083H7.24082C7.05666 5.94083 6.77499 6.00583 6.52582 6.27666C6.28749 6.54749 5.59416 7.19749 5.59416 8.51916C5.59416 9.84083 6.55832 11.1192 6.68832 11.2925C6.81833 11.4767 8.58416 14.185 11.2708 15.3442C11.91 15.6258 12.4083 15.7883 12.7983 15.9075C13.4375 16.1133 14.0225 16.0808 14.4883 16.0158C15.0083 15.94 16.0808 15.3658 16.2975 14.7375C16.525 14.1092 16.525 13.5783 16.4492 13.4592C16.3733 13.34 16.2108 13.2858 15.94 13.1558Z" fill="black"/>
</svg>
