<svg width="41" height="41" viewBox="0 0 41 41" fill="none" xmlns="http://www.w3.org/2000/svg">
<path d="M25.3237 6.20291C25.6374 6.20291 25.951 6.31848 26.1987 6.56614C26.6775 7.04493 26.6775 7.83743 26.1987 8.31623L15.434 19.0809C14.6415 19.8734 14.6415 21.1612 15.434 21.9537L26.1987 32.7184C26.6775 33.1972 26.6775 33.9897 26.1987 34.4685C25.7199 34.9473 24.9274 34.9473 24.4486 34.4685L13.6839 23.7038C12.8419 22.8618 12.3631 21.7226 12.3631 20.5173C12.3631 19.3121 12.8254 18.1729 13.6839 17.3308L24.4486 6.56614C24.6963 6.33499 25.01 6.20291 25.3237 6.20291Z" fill="black"/>
</svg>
