<svg width="40" height="27" viewBox="0 0 40 27" fill="none" xmlns="http://www.w3.org/2000/svg">
<path d="M5.8732 10.0236C5.8732 9.8098 5.98877 9.59605 6.23642 9.4273C6.71522 9.10105 7.50772 9.10105 7.98652 9.4273L18.7512 16.7623C19.5437 17.3023 20.8315 17.3023 21.624 16.7623L32.3887 9.4273C32.8675 9.10105 33.66 9.10105 34.1388 9.4273C34.6176 9.75355 34.6176 10.2936 34.1388 10.6198L23.3741 17.9548C22.5321 18.5286 21.3929 18.8548 20.1876 18.8548C18.9824 18.8548 17.8432 18.5398 17.0011 17.9548L6.23642 10.6198C6.00528 10.4511 5.8732 10.2373 5.8732 10.0236Z" fill="black"/>
</svg>
