<svg width="22" height="22" viewBox="0 0 22 22" fill="none" xmlns="http://www.w3.org/2000/svg">
<path d="M18.6375 3.31907C17.6443 2.31582 16.4613 1.52038 15.1574 0.979124C13.8536 0.437872 12.455 0.16165 11.0433 0.166568C5.12832 0.166568 0.307492 4.9874 0.307492 10.9024C0.307492 12.7982 0.805825 14.6399 1.73749 16.2649L0.220825 21.8332L5.90832 20.3382C7.47916 21.1941 9.24499 21.6491 11.0433 21.6491C16.9583 21.6491 21.7792 16.8282 21.7792 10.9132C21.7792 8.0424 20.6633 5.3449 18.6375 3.31907ZM11.0433 19.8291C9.43999 19.8291 7.86916 19.3957 6.49332 18.5832L6.16832 18.3882L2.78833 19.2766L3.68749 15.9832L3.47083 15.6474C2.58005 14.225 2.10706 12.5807 2.10583 10.9024C2.10583 5.98407 6.11416 1.97574 11.0325 1.97574C13.4158 1.97574 15.6583 2.9074 17.3375 4.5974C18.1689 5.42503 18.8278 6.40945 19.276 7.49361C19.7242 8.57777 19.9527 9.7401 19.9483 10.9132C19.97 15.8316 15.9617 19.8291 11.0433 19.8291ZM15.94 13.1557C15.6692 13.0257 14.3475 12.3757 14.1092 12.2782C13.86 12.1916 13.6867 12.1482 13.5025 12.4082C13.3183 12.6791 12.8092 13.2857 12.6575 13.4591C12.5058 13.6432 12.3433 13.6649 12.0725 13.5241C11.8017 13.3941 10.935 13.1016 9.91666 12.1916C9.11499 11.4766 8.58416 10.5991 8.42166 10.3282C8.26999 10.0574 8.39999 9.91657 8.54082 9.77573C8.65999 9.65657 8.81166 9.46157 8.94166 9.3099C9.07166 9.15823 9.12582 9.03907 9.21249 8.86574C9.29916 8.68157 9.25582 8.5299 9.19082 8.3999C9.12582 8.2699 8.58416 6.94824 8.36749 6.40657C8.15082 5.88657 7.92332 5.95157 7.76082 5.94074H7.24082C7.05666 5.94074 6.77499 6.00574 6.52582 6.27657C6.28749 6.5474 5.59416 7.1974 5.59416 8.51907C5.59416 9.84074 6.55832 11.1191 6.68832 11.2924C6.81833 11.4766 8.58416 14.1849 11.2708 15.3441C11.91 15.6257 12.4083 15.7882 12.7983 15.9074C13.4375 16.1132 14.0225 16.0807 14.4883 16.0157C15.0083 15.9399 16.0808 15.3657 16.2975 14.7374C16.525 14.1091 16.525 13.5782 16.4492 13.4591C16.3733 13.3399 16.2108 13.2857 15.94 13.1557Z" fill="black"/>
</svg>
