<svg width="20" height="22" viewBox="0 0 20 22" fill="none" xmlns="http://www.w3.org/2000/svg">
<path d="M19.3438 9.37518C19.3438 11.7721 18.5008 13.9658 16.9672 15.5603C15.4336 17.1549 13.5852 17.9064 11.625 17.9064C10.0508 17.9064 8.90312 17.4799 8.08047 16.9619L7.12578 21.0244C7.06375 21.293 6.91247 21.5327 6.69664 21.7042C6.48082 21.8758 6.2132 21.9691 5.9375 21.9689C5.84525 21.9688 5.7533 21.9586 5.66328 21.9385C5.50718 21.9025 5.3597 21.8362 5.22926 21.7432C5.09882 21.6503 4.98798 21.5325 4.90309 21.3967C4.81819 21.2609 4.76091 21.1096 4.73451 20.9516C4.7081 20.7937 4.7131 20.632 4.74922 20.476L7.99922 6.66346C8.03523 6.50741 8.10162 6.35999 8.19461 6.2296C8.2876 6.09921 8.40535 5.98841 8.54116 5.90354C8.67697 5.81866 8.82816 5.76136 8.98611 5.73491C9.14406 5.70846 9.30567 5.71339 9.46172 5.7494C9.61777 5.78541 9.76519 5.8518 9.89558 5.94479C10.026 6.03778 10.1368 6.15553 10.2216 6.29134C10.3065 6.42715 10.3638 6.57834 10.3903 6.73629C10.4167 6.89424 10.4118 7.05585 10.3758 7.2119L8.7 14.3213C9.05547 14.7478 9.91875 15.4689 11.625 15.4689C14.225 15.4689 16.9062 13.1939 16.9062 9.37518C16.9053 8.29671 16.6517 7.23347 16.166 6.2706C15.6802 5.30774 14.9757 4.47203 14.1088 3.8304C13.242 3.18878 12.2369 2.75908 11.1742 2.57573C10.1114 2.39237 9.02046 2.46046 7.98875 2.77453C6.95703 3.0886 6.0132 3.63994 5.23287 4.38436C4.45254 5.12879 3.85739 6.04562 3.4951 7.06141C3.13281 8.0772 3.01345 9.16372 3.14657 10.2339C3.2797 11.3042 3.66161 12.3283 4.26172 13.2244C4.36481 13.3565 4.43954 13.5085 4.48125 13.6708C4.52296 13.8331 4.53075 14.0023 4.50413 14.1677C4.47751 14.3332 4.41705 14.4914 4.32654 14.6324C4.23603 14.7734 4.1174 14.8943 3.97807 14.9874C3.83874 15.0805 3.6817 15.1439 3.51677 15.1736C3.35184 15.2033 3.18256 15.1986 3.01951 15.16C2.85645 15.1213 2.70312 15.0494 2.56911 14.9488C2.4351 14.8481 2.32327 14.721 2.24062 14.5752C1.42723 13.3627 0.909279 11.9766 0.728308 10.5278C0.547338 9.07906 0.708384 7.60806 1.19853 6.23278C1.68868 4.85751 2.49429 3.61623 3.55075 2.6085C4.60721 1.60077 5.88512 0.854639 7.282 0.429937C8.67887 0.00523454 10.1558 -0.0862155 11.5944 0.162921C13.033 0.412058 14.3932 0.994847 15.5659 1.86455C16.7386 2.73425 17.6912 3.86667 18.3473 5.17097C19.0033 6.47527 19.3446 7.91517 19.3438 9.37518Z" fill="black"/>
</svg>
