<svg width="17" height="26" viewBox="0 0 17 26" fill="none" xmlns="http://www.w3.org/2000/svg">
<path d="M6.31125 22.1482C6.17666 22.1482 6.04208 22.0732 5.93583 21.9125C5.73041 21.6017 5.73041 21.0874 5.93583 20.7767L10.5542 13.7904C10.8942 13.2761 10.8942 12.4403 10.5542 11.9259L5.93583 4.93966C5.73041 4.62892 5.73041 4.11459 5.93583 3.80386C6.14125 3.49312 6.48125 3.49312 6.68666 3.80386L11.305 10.7901C11.6662 11.3366 11.8717 12.076 11.8717 12.8582C11.8717 13.6404 11.6733 14.3797 11.305 14.9262L6.68666 21.9125C6.58041 22.0625 6.44583 22.1482 6.31125 22.1482Z" fill="black"/>
</svg>
