<svg width="40" height="40" viewBox="0 0 40 40" fill="none" xmlns="http://www.w3.org/2000/svg">
<path d="M5.8732 14.7107C5.8732 14.397 5.98877 14.0833 6.23642 13.8357C6.71522 13.3569 7.50772 13.3569 7.98652 13.8357L18.7512 24.6004C19.5437 25.3929 20.8315 25.3929 21.624 24.6004L32.3887 13.8357C32.8675 13.3569 33.66 13.3569 34.1388 13.8357C34.6176 14.3145 34.6176 15.107 34.1388 15.5858L23.3741 26.3505C22.5321 27.1925 21.3929 27.6713 20.1876 27.6713C18.9824 27.6713 17.8432 27.209 17.0011 26.3505L6.23642 15.5858C6.00528 15.3381 5.8732 15.0244 5.8732 14.7107Z" fill="black"/>
</svg>
