<svg width="20" height="22" viewBox="0 0 20 22" fill="none" xmlns="http://www.w3.org/2000/svg">
<path d="M19.3438 9.37506C19.3438 11.7719 18.5008 13.9657 16.9672 15.5602C15.4336 17.1547 13.5852 17.9063 11.625 17.9063C10.0508 17.9063 8.90312 17.4797 8.08047 16.9618L7.12578 21.0243C7.06375 21.2929 6.91247 21.5326 6.69664 21.7041C6.48082 21.8757 6.2132 21.969 5.9375 21.9688C5.84525 21.9687 5.7533 21.9585 5.66328 21.9383C5.50718 21.9024 5.3597 21.8361 5.22926 21.7431C5.09882 21.6502 4.98798 21.5324 4.90309 21.3966C4.81819 21.2607 4.76091 21.1095 4.73451 20.9515C4.7081 20.7935 4.7131 20.6319 4.74922 20.4758L7.99922 6.66334C8.03523 6.50729 8.10162 6.35986 8.19461 6.22948C8.2876 6.09909 8.40535 5.98829 8.54116 5.90341C8.67697 5.81853 8.82816 5.76124 8.98611 5.73479C9.14406 5.70834 9.30567 5.71326 9.46172 5.74928C9.61777 5.78529 9.76519 5.85168 9.89558 5.94467C10.026 6.03765 10.1368 6.15541 10.2216 6.29122C10.3065 6.42702 10.3638 6.57822 10.3903 6.73617C10.4167 6.89412 10.4118 7.05573 10.3758 7.21178L8.7 14.3212C9.05547 14.7477 9.91875 15.4688 11.625 15.4688C14.225 15.4688 16.9062 13.1938 16.9062 9.37506C16.9053 8.29659 16.6517 7.23334 16.166 6.27048C15.6802 5.30762 14.9757 4.4719 14.1088 3.83028C13.242 3.18866 12.2369 2.75896 11.1742 2.5756C10.1114 2.39225 9.02046 2.46034 7.98875 2.77441C6.95703 3.08848 6.0132 3.63981 5.23287 4.38424C4.45254 5.12866 3.85739 6.04549 3.4951 7.06129C3.13281 8.07708 3.01345 9.1636 3.14657 10.2338C3.2797 11.304 3.66161 12.3282 4.26172 13.2243C4.36481 13.3564 4.43954 13.5084 4.48125 13.6707C4.52296 13.833 4.53075 14.0021 4.50413 14.1676C4.47751 14.3331 4.41705 14.4912 4.32654 14.6323C4.23603 14.7733 4.1174 14.8942 3.97807 14.9873C3.83874 15.0804 3.6817 15.1438 3.51677 15.1735C3.35184 15.2032 3.18256 15.1985 3.01951 15.1598C2.85645 15.1211 2.70312 15.0492 2.56911 14.9486C2.4351 14.848 2.32327 14.7208 2.24062 14.5751C1.42723 13.3626 0.909279 11.9764 0.728308 10.5277C0.547338 9.07893 0.708384 7.60794 1.19853 6.23266C1.68868 4.85739 2.49429 3.61611 3.55075 2.60838C4.60721 1.60065 5.88512 0.854517 7.282 0.429815C8.67887 0.00511247 10.1558 -0.0863376 11.5944 0.162799C13.033 0.411935 14.3932 0.994725 15.5659 1.86443C16.7386 2.73413 17.6912 3.86654 18.3473 5.17085C19.0033 6.47515 19.3446 7.91505 19.3438 9.37506Z" fill="black"/>
</svg>
