<svg width="22" height="22" viewBox="0 0 22 22" fill="none" xmlns="http://www.w3.org/2000/svg">
<path d="M11 6.125C10.0358 6.125 9.09328 6.41091 8.29159 6.94659C7.48991 7.48226 6.86506 8.24363 6.49609 9.13442C6.12711 10.0252 6.03057 11.0054 6.21867 11.9511C6.40677 12.8967 6.87107 13.7654 7.55285 14.4471C8.23464 15.1289 9.10328 15.5932 10.0489 15.7813C10.9946 15.9694 11.9748 15.8729 12.8656 15.5039C13.7564 15.1349 14.5177 14.5101 15.0534 13.7084C15.5891 12.9067 15.875 11.9642 15.875 11C15.875 9.70707 15.3614 8.46709 14.4471 7.55285C13.5329 6.63861 12.2929 6.125 11 6.125ZM11 14.25C10.3572 14.25 9.72886 14.0594 9.1944 13.7023C8.65994 13.3452 8.24338 12.8376 7.99739 12.2437C7.75141 11.6499 7.68705 10.9964 7.81245 10.366C7.93785 9.73552 8.24738 9.15642 8.7019 8.7019C9.15642 8.24738 9.73552 7.93785 10.366 7.81245C10.9964 7.68705 11.6499 7.75141 12.2437 7.99739C12.8376 8.24338 13.3452 8.65994 13.7023 9.1944C14.0594 9.72886 14.25 10.3572 14.25 11C14.2473 11.8611 13.9041 12.6862 13.2951 13.2951C12.6862 13.9041 11.8611 14.2473 11 14.25ZM15.4688 0.84375H6.53125C5.02283 0.84375 3.57619 1.44297 2.50958 2.50958C1.44297 3.57619 0.84375 5.02283 0.84375 6.53125V15.4688C0.84375 16.9772 1.44297 18.4238 2.50958 19.4904C3.57619 20.557 5.02283 21.1562 6.53125 21.1562H15.4688C16.9772 21.1562 18.4238 20.557 19.4904 19.4904C20.557 18.4238 21.1562 16.9772 21.1562 15.4688V6.53125C21.1562 5.02283 20.557 3.57619 19.4904 2.50958C18.4238 1.44297 16.9772 0.84375 15.4688 0.84375ZM19.5312 15.4688C19.5312 16.0022 19.4262 16.5305 19.222 17.0234C19.0179 17.5163 18.7186 17.9641 18.3414 18.3414C17.9641 18.7186 17.5163 19.0179 17.0234 19.222C16.5305 19.4262 16.0022 19.5312 15.4688 19.5312H6.53125C5.99776 19.5312 5.46948 19.4262 4.9766 19.222C4.48371 19.0179 4.03587 18.7186 3.65863 18.3414C3.28139 17.9641 2.98215 17.5163 2.77799 17.0234C2.57383 16.5305 2.46875 16.0022 2.46875 15.4688V6.53125C2.46875 5.45381 2.89676 4.4205 3.65863 3.65863C4.4205 2.89676 5.45381 2.46875 6.53125 2.46875H15.4688C16.0022 2.46875 16.5305 2.57383 17.0234 2.77799C17.5163 2.98215 17.9641 3.28139 18.3414 3.65863C18.7186 4.03587 19.0179 4.48371 19.222 4.9766C19.4262 5.46948 19.5312 5.99776 19.5312 6.53125V15.4688ZM17.5 5.71875C17.5 5.9598 17.4285 6.19543 17.2946 6.39585C17.1607 6.59627 16.9703 6.75248 16.7476 6.84473C16.5249 6.93697 16.2799 6.96111 16.0435 6.91408C15.8071 6.86706 15.5899 6.75098 15.4195 6.58054C15.249 6.41009 15.1329 6.19293 15.0859 5.95652C15.0389 5.7201 15.063 5.47505 15.1553 5.25235C15.2475 5.02966 15.4037 4.83931 15.6041 4.7054C15.8046 4.57148 16.0402 4.5 16.2812 4.5C16.6045 4.5 16.9145 4.6284 17.143 4.85696C17.3716 5.08552 17.5 5.39552 17.5 5.71875Z" fill="black"/>
</svg>
