<svg width="26" height="26" viewBox="0 0 26 26" fill="none" xmlns="http://www.w3.org/2000/svg">
<path d="M10.2533 21.6769C10.0555 21.6769 9.85775 21.6041 9.70163 21.4479C9.39979 21.1461 9.39979 20.6465 9.70163 20.3447L16.4878 13.5586C16.9873 13.059 16.9873 12.2471 16.4878 11.7475L9.70163 4.96142C9.39979 4.65958 9.39979 4.15999 9.70163 3.85815C10.0035 3.55632 10.5031 3.55632 10.8049 3.85815L17.591 10.6443C18.1218 11.1751 18.4237 11.8933 18.4237 12.6531C18.4237 13.4128 18.1322 14.131 17.591 14.6618L10.8049 21.4479C10.6488 21.5937 10.451 21.6769 10.2533 21.6769Z" fill="black"/>
</svg>
