<svg width="26" height="26" viewBox="0 0 26 26" fill="none" xmlns="http://www.w3.org/2000/svg">
<g id="ic:baseline-whatsapp">
<path id="Vector" d="M20.6375 5.31907C19.6443 4.31582 18.4613 3.52038 17.1574 2.97912C15.8536 2.43787 14.455 2.16165 13.0433 2.16657C7.12832 2.16657 2.30749 6.9874 2.30749 12.9024C2.30749 14.7982 2.80583 16.6399 3.73749 18.2649L2.22083 23.8332L7.90832 22.3382C9.47916 23.1941 11.245 23.6491 13.0433 23.6491C18.9583 23.6491 23.7792 18.8282 23.7792 12.9132C23.7792 10.0424 22.6633 7.3449 20.6375 5.31907ZM13.0433 21.8291C11.44 21.8291 9.86916 21.3957 8.49332 20.5832L8.16832 20.3882L4.78833 21.2766L5.68749 17.9832L5.47083 17.6474C4.58005 16.225 4.10706 14.5807 4.10583 12.9024C4.10583 7.98407 8.11416 3.97574 13.0325 3.97574C15.4158 3.97574 17.6583 4.9074 19.3375 6.5974C20.1689 7.42503 20.8278 8.40945 21.276 9.49361C21.7242 10.5778 21.9527 11.7401 21.9483 12.9132C21.97 17.8316 17.9617 21.8291 13.0433 21.8291ZM17.94 15.1557C17.6692 15.0257 16.3475 14.3757 16.1092 14.2782C15.86 14.1916 15.6867 14.1482 15.5025 14.4082C15.3183 14.6791 14.8092 15.2857 14.6575 15.4591C14.5058 15.6432 14.3433 15.6649 14.0725 15.5241C13.8017 15.3941 12.935 15.1016 11.9167 14.1916C11.115 13.4766 10.5842 12.5991 10.4217 12.3282C10.27 12.0574 10.4 11.9166 10.5408 11.7757C10.66 11.6566 10.8117 11.4616 10.9417 11.3099C11.0717 11.1582 11.1258 11.0391 11.2125 10.8657C11.2992 10.6816 11.2558 10.5299 11.1908 10.3999C11.1258 10.2699 10.5842 8.94824 10.3675 8.40657C10.1508 7.88657 9.92332 7.95157 9.76082 7.94074H9.24082C9.05666 7.94074 8.77499 8.00574 8.52582 8.27657C8.28749 8.5474 7.59416 9.1974 7.59416 10.5191C7.59416 11.8407 8.55832 13.1191 8.68832 13.2924C8.81833 13.4766 10.5842 16.1849 13.2708 17.3441C13.91 17.6257 14.4083 17.7882 14.7983 17.9074C15.4375 18.1132 16.0225 18.0807 16.4883 18.0157C17.0083 17.9399 18.0808 17.3657 18.2975 16.7374C18.525 16.1091 18.525 15.5782 18.4492 15.4591C18.3733 15.3399 18.2108 15.2857 17.94 15.1557Z" fill="black"/>
</g>
</svg>
