<svg width="26" height="26" viewBox="0 0 26 26" fill="none" xmlns="http://www.w3.org/2000/svg">
<g id="ph:instagram-logo">
<path id="Vector" d="M13 8.125C12.0358 8.125 11.0933 8.41091 10.2916 8.94659C9.48991 9.48226 8.86506 10.2436 8.49609 11.1344C8.12711 12.0252 8.03057 13.0054 8.21867 13.9511C8.40677 14.8967 8.87107 15.7654 9.55285 16.4471C10.2346 17.1289 11.1033 17.5932 12.0489 17.7813C12.9946 17.9694 13.9748 17.8729 14.8656 17.5039C15.7564 17.1349 16.5177 16.5101 17.0534 15.7084C17.5891 14.9067 17.875 13.9642 17.875 13C17.875 11.7071 17.3614 10.4671 16.4471 9.55285C15.5329 8.63861 14.2929 8.125 13 8.125ZM13 16.25C12.3572 16.25 11.7289 16.0594 11.1944 15.7023C10.6599 15.3452 10.2434 14.8376 9.99739 14.2437C9.75141 13.6499 9.68705 12.9964 9.81245 12.366C9.93785 11.7355 10.2474 11.1564 10.7019 10.7019C11.1564 10.2474 11.7355 9.93785 12.366 9.81245C12.9964 9.68705 13.6499 9.75141 14.2437 9.99739C14.8376 10.2434 15.3452 10.6599 15.7023 11.1944C16.0594 11.7289 16.25 12.3572 16.25 13C16.2473 13.8611 15.9041 14.6862 15.2951 15.2951C14.6862 15.9041 13.8611 16.2473 13 16.25ZM17.4688 2.84375H8.53125C7.02283 2.84375 5.57619 3.44297 4.50958 4.50958C3.44297 5.57619 2.84375 7.02283 2.84375 8.53125V17.4688C2.84375 18.9772 3.44297 20.4238 4.50958 21.4904C5.57619 22.557 7.02283 23.1562 8.53125 23.1562H17.4688C18.9772 23.1562 20.4238 22.557 21.4904 21.4904C22.557 20.4238 23.1562 18.9772 23.1562 17.4688V8.53125C23.1562 7.02283 22.557 5.57619 21.4904 4.50958C20.4238 3.44297 18.9772 2.84375 17.4688 2.84375ZM21.5312 17.4688C21.5312 18.0022 21.4262 18.5305 21.222 19.0234C21.0179 19.5163 20.7186 19.9641 20.3414 20.3414C19.9641 20.7186 19.5163 21.0179 19.0234 21.222C18.5305 21.4262 18.0022 21.5312 17.4688 21.5312H8.53125C7.99776 21.5312 7.46948 21.4262 6.9766 21.222C6.48371 21.0179 6.03587 20.7186 5.65863 20.3414C5.28139 19.9641 4.98215 19.5163 4.77799 19.0234C4.57383 18.5305 4.46875 18.0022 4.46875 17.4688V8.53125C4.46875 7.45381 4.89676 6.4205 5.65863 5.65863C6.4205 4.89676 7.45381 4.46875 8.53125 4.46875H17.4688C18.0022 4.46875 18.5305 4.57383 19.0234 4.77799C19.5163 4.98215 19.9641 5.28139 20.3414 5.65863C20.7186 6.03587 21.0179 6.48371 21.222 6.9766C21.4262 7.46948 21.5312 7.99776 21.5312 8.53125V17.4688ZM19.5 7.71875C19.5 7.9598 19.4285 8.19543 19.2946 8.39585C19.1607 8.59627 18.9703 8.75248 18.7476 8.84473C18.5249 8.93697 18.2799 8.96111 18.0435 8.91408C17.8071 8.86706 17.5899 8.75098 17.4195 8.58054C17.249 8.41009 17.1329 8.19293 17.0859 7.95652C17.0389 7.7201 17.063 7.47505 17.1553 7.25235C17.2475 7.02966 17.4037 6.83931 17.6041 6.7054C17.8046 6.57148 18.0402 6.5 18.2812 6.5C18.6045 6.5 18.9145 6.6284 19.143 6.85696C19.3716 7.08552 19.5 7.39552 19.5 7.71875Z" fill="black"/>
</g>
</svg>
