<svg width="26" height="26" viewBox="0 0 26 26" fill="none" xmlns="http://www.w3.org/2000/svg">
<g id="ph:pinterest-logo-bold">
<path id="Vector" d="M22.3438 11.3752C22.3438 13.7721 21.5008 15.9658 19.9672 17.5603C18.4336 19.1549 16.5852 19.9064 14.625 19.9064C13.0508 19.9064 11.9031 19.4799 11.0805 18.9619L10.1258 23.0244C10.0637 23.293 9.91247 23.5327 9.69664 23.7042C9.48082 23.8758 9.2132 23.9691 8.9375 23.9689C8.84525 23.9688 8.7533 23.9586 8.66328 23.9385C8.50718 23.9025 8.3597 23.8362 8.22926 23.7432C8.09882 23.6503 7.98798 23.5325 7.90309 23.3967C7.81819 23.2609 7.76091 23.1096 7.73451 22.9516C7.7081 22.7937 7.7131 22.632 7.74922 22.476L10.9992 8.66346C11.0352 8.50741 11.1016 8.35999 11.1946 8.2296C11.2876 8.09921 11.4054 7.98841 11.5412 7.90354C11.677 7.81866 11.8282 7.76136 11.9861 7.73491C12.1441 7.70846 12.3057 7.71339 12.4617 7.7494C12.6178 7.78541 12.7652 7.8518 12.8956 7.94479C13.026 8.03778 13.1368 8.15553 13.2216 8.29134C13.3065 8.42715 13.3638 8.57834 13.3903 8.73629C13.4167 8.89424 13.4118 9.05585 13.3758 9.2119L11.7 16.3213C12.0555 16.7478 12.9187 17.4689 14.625 17.4689C17.225 17.4689 19.9062 15.1939 19.9062 11.3752C19.9053 10.2967 19.6517 9.23347 19.166 8.2706C18.6802 7.30774 17.9757 6.47203 17.1088 5.8304C16.242 5.18878 15.2369 4.75908 14.1742 4.57573C13.1114 4.39237 12.0205 4.46046 10.9887 4.77453C9.95703 5.0886 9.0132 5.63994 8.23287 6.38436C7.45254 7.12879 6.85739 8.04562 6.4951 9.06141C6.13281 10.0772 6.01345 11.1637 6.14657 12.2339C6.2797 13.3042 6.66161 14.3283 7.26172 15.2244C7.36481 15.3565 7.43954 15.5085 7.48125 15.6708C7.52296 15.8331 7.53075 16.0023 7.50413 16.1677C7.47751 16.3332 7.41705 16.4914 7.32654 16.6324C7.23603 16.7734 7.1174 16.8943 6.97807 16.9874C6.83874 17.0805 6.6817 17.1439 6.51677 17.1736C6.35184 17.2033 6.18256 17.1986 6.01951 17.16C5.85645 17.1213 5.70312 17.0494 5.56911 16.9488C5.4351 16.8481 5.32327 16.721 5.24062 16.5752C4.42723 15.3627 3.90928 13.9766 3.72831 12.5278C3.54734 11.0791 3.70838 9.60806 4.19853 8.23278C4.68868 6.85751 5.49429 5.61623 6.55075 4.6085C7.60721 3.60077 8.88512 2.85464 10.282 2.42994C11.6789 2.00523 13.1558 1.91378 14.5944 2.16292C16.033 2.41206 17.3932 2.99485 18.5659 3.86455C19.7386 4.73425 20.6912 5.86667 21.3473 7.17097C22.0033 8.47527 22.3446 9.91517 22.3438 11.3752Z" fill="black"/>
</g>
</svg>
