<svg width="22" height="22" viewBox="0 0 22 22" fill="none" xmlns="http://www.w3.org/2000/svg">
<path d="M18.6375 3.31919C17.6443 2.31594 16.4613 1.5205 15.1574 0.979246C13.8536 0.437994 12.455 0.161773 11.0433 0.166691C5.12832 0.166691 0.307492 4.98752 0.307492 10.9025C0.307492 12.7984 0.805825 14.64 1.73749 16.265L0.220825 21.8334L5.90832 20.3384C7.47916 21.1942 9.24499 21.6492 11.0433 21.6492C16.9583 21.6492 21.7792 16.8284 21.7792 10.9134C21.7792 8.04252 20.6633 5.34502 18.6375 3.31919ZM11.0433 19.8292C9.43999 19.8292 7.86916 19.3959 6.49332 18.5834L6.16832 18.3884L2.78833 19.2767L3.68749 15.9834L3.47083 15.6475C2.58005 14.2251 2.10706 12.5809 2.10583 10.9025C2.10583 5.98419 6.11416 1.97586 11.0325 1.97586C13.4158 1.97586 15.6583 2.90752 17.3375 4.59752C18.1689 5.42515 18.8278 6.40957 19.276 7.49373C19.7242 8.57789 19.9527 9.74022 19.9483 10.9134C19.97 15.8317 15.9617 19.8292 11.0433 19.8292ZM15.94 13.1559C15.6692 13.0259 14.3475 12.3759 14.1092 12.2784C13.86 12.1917 13.6867 12.1484 13.5025 12.4084C13.3183 12.6792 12.8092 13.2859 12.6575 13.4592C12.5058 13.6434 12.3433 13.665 12.0725 13.5242C11.8017 13.3942 10.935 13.1017 9.91666 12.1917C9.11499 11.4767 8.58416 10.5992 8.42166 10.3284C8.26999 10.0575 8.39999 9.91669 8.54082 9.77586C8.65999 9.65669 8.81166 9.46169 8.94166 9.31002C9.07166 9.15836 9.12582 9.03919 9.21249 8.86586C9.29916 8.68169 9.25582 8.53002 9.19082 8.40002C9.12582 8.27002 8.58416 6.94836 8.36749 6.40669C8.15082 5.88669 7.92332 5.95169 7.76082 5.94086H7.24082C7.05666 5.94086 6.77499 6.00586 6.52582 6.27669C6.28749 6.54752 5.59416 7.19752 5.59416 8.51919C5.59416 9.84086 6.55832 11.1192 6.68832 11.2925C6.81833 11.4767 8.58416 14.185 11.2708 15.3442C11.91 15.6259 12.4083 15.7884 12.7983 15.9075C13.4375 16.1134 14.0225 16.0809 14.4883 16.0159C15.0083 15.94 16.0808 15.3659 16.2975 14.7375C16.525 14.1092 16.525 13.5784 16.4492 13.4592C16.3733 13.34 16.2108 13.2859 15.94 13.1559Z" fill="black"/>
</svg>
